<svg xmlns="http://www.w3.org/2000/svg" aria-hidden="true" style="position:absolute;width:0;height:0;overflow:hidden">
  <defs>
    <symbol id="icon-ac" viewBox="0 0 31 32">
      <path d="M15.082 5.139c-1.31 0-2.58.466-3.593 1.318S9.782 8.494 9.524 9.812l-.101.523a.913.913 0 0 0 .358.946.849.849 0 0 0 .669.137.865.865 0 0 0 .561-.397.901.901 0 0 0 .124-.333l.103-.521c.193-.977.733-1.845 1.516-2.437a3.85 3.85 0 0 1 5.234.534 4.086 4.086 0 0 1-.131 5.544 3.875 3.875 0 0 1-2.777 1.181H2.425c-.231 0-.453.094-.617.262a.907.907 0 0 0 0 1.266.862.862 0 0 0 .617.262H15.08c1.48-.037 2.887-.666 3.922-1.753s1.613-2.545 1.614-4.063c0-1.519-.578-2.977-1.611-4.064s-2.441-1.717-3.921-1.755zm10.033 8.056c-1.157 0-2.267.472-3.086 1.311s-1.278 1.978-1.278 3.165c0 .237.092.465.256.633s.386.262.617.262c.231 0 .453-.094.617-.262s.256-.396.256-.633c0-.531.154-1.05.441-1.492s.697-.786 1.175-.989a2.565 2.565 0 0 1 2.854.582c.366.376.615.854.716 1.375s.049 1.061-.149 1.552c-.198.491-.534.91-.964 1.205s-.937.453-1.455.453H2.424c-.231 0-.453.094-.617.262a.907.907 0 0 0 0 1.266.862.862 0 0 0 .617.262h17.018c.579.001 1.133.238 1.542.659s.637.99.636 1.584c-.001.593-.232 1.162-.642 1.581s-.965.653-1.544.652c-.521 0-1.026-.189-1.424-.533s-.665-.823-.752-1.35l-.009-.054c-.016-.119-.055-.233-.114-.336a.88.88 0 0 0-.548-.414.846.846 0 0 0-.671.115.908.908 0 0 0-.389.93l.009.054c.155.945.632 1.803 1.345 2.422s1.618.958 2.552.958c1.043 0 2.043-.423 2.781-1.179s1.154-1.78 1.155-2.849c0-.829-.244-1.599-.662-2.238h2.407c1.157 0 2.267-.472 3.086-1.311s1.278-1.978 1.278-3.165-.46-2.325-1.278-3.165a4.31 4.31 0 0 0-3.086-1.311z"/>
      <path d="m15.082 5.139.125-4.847-.063-.002h-.063l.001 4.848zM9.525 9.812l-4.759-.93-.001.008 4.76.922zm-.101.523 4.725 1.088.019-.083.016-.083-4.76-.922zm1.71.35-4.756-.94-.017.086-.014.087 4.787.768zm.103-.52zm7.769.791h4.848v-.012l-4.849.012zm-3.927 4.03v4.848h.002l-.002-4.848zm-13.527.895zm13.527.895v4.848h.061l.061-.002-.122-4.847zm7.418.895zm-20.945 3.58zm17.891.895.01-4.848h-.01v4.849zm-.009 4.476.01-4.848h-.014l.004 4.849zm-2.177-1.883-4.786.778.001.008.001.008 4.783-.793zm-.009-.054-4.807.635.009.071.012.071 4.786-.778zm-1.721.294 4.786-.778-.011-.07-.013-.069-4.761.917zm.009.053-4.786.778.001.008 4.784-.786zm3.898 3.38.002-4.848h-.003l.001 4.849zm3.936-4.028 4.848.008v-.008h-4.849zm-.662-2.238v-4.848h-8.955l4.895 7.499 4.06-2.65zM15.081.291a10.434 10.434 0 0 0-6.712 2.455l6.24 7.422a.735.735 0 0 1 .474-.18L15.081.291zM8.37 2.746a10.689 10.689 0 0 0-3.603 6.136l9.517 1.859a.995.995 0 0 1 .326-.573L8.37 2.746zM4.765 8.89l-.101.523 9.52 1.844.101-.523-9.52-1.844zm-.066.357a5.777 5.777 0 0 0-.068 2.242l9.565-1.596a3.917 3.917 0 0 1-.047 1.529l-9.45-2.175zm-.069 2.242c.124.744.394 1.461.799 2.107l8.219-5.146c.278.444.462.935.547 1.442L4.63 11.488zm.799 2.108a5.765 5.765 0 0 0 1.572 1.656l5.559-7.945c.441.309.809.7 1.087 1.144l-8.219 5.146zm1.572 1.655a5.707 5.707 0 0 0 2.126.915l1.948-9.499c.538.11 1.043.33 1.485.639l-5.559 7.945zm2.127.916a5.688 5.688 0 0 0 2.328-.008L9.444 6.674a3.988 3.988 0 0 1 1.632-.005l-1.948 9.499zm2.328-.008a5.724 5.724 0 0 0 2.12-.929L7.965 7.323a3.977 3.977 0 0 1 1.48-.648l2.012 9.486zm2.119-.929a5.718 5.718 0 0 0 1.561-1.665L6.884 8.473c.275-.446.64-.839 1.079-1.151l5.611 7.908zm1.561-1.666c.4-.649.666-1.367.785-2.112L6.346 9.918c.081-.508.263-1 .538-1.445l8.252 5.092zm.755-1.939.103-.521-9.513-1.88-.103.521 9.513 1.881zm.102-.519a.817.817 0 0 1-.315.487L9.826 3.862A8.886 8.886 0 0 0 6.48 9.223l9.512 1.884zm-.314.487a.998.998 0 0 1-.7.191l.983-9.647a8.702 8.702 0 0 0-6.135 1.724l5.852 7.732zm-.7.191a.965.965 0 0 1-.622-.31l7.261-6.427a8.738 8.738 0 0 0-5.657-2.91l-.983 9.647zm-.622-.311a.76.76 0 0 1-.199-.507l9.697-.023a8.924 8.924 0 0 0-2.237-5.897l-7.261 6.427zm-.199-.518c0-.178.068-.373.226-.535l6.945 6.768a8.932 8.932 0 0 0 2.526-6.233h-9.697zm.226-.535a.97.97 0 0 1 .693-.284l.004 9.697a8.727 8.727 0 0 0 6.247-2.645l-6.945-6.768zm.695-.284H2.424v9.697h12.655v-9.697zm-12.655 0a5.711 5.711 0 0 0-4.089 1.726l6.943 6.769a3.99 3.99 0 0 1-2.854 1.202v-9.697zm-4.088 1.726a5.755 5.755 0 0 0-1.633 4.018H6.4c0 1.009-.39 2.002-1.121 2.752l-6.943-6.769zm-1.633 4.018c0 1.484.574 2.932 1.633 4.018l6.943-6.769A3.938 3.938 0 0 1 6.4 15.882h-9.697zm1.633 4.017a5.711 5.711 0 0 0 4.089 1.726v-9.697c1.095 0 2.119.447 2.854 1.202l-6.943 6.769zm4.088 1.726h12.655v-9.697H2.424v9.697zm12.777-.001a10.456 10.456 0 0 0 7.312-3.257l-7.024-6.685a.766.766 0 0 1-.531.249l.244 9.694zm7.312-3.258c1.903-2 2.949-4.659 2.95-7.404l-9.697-.003c0 .292-.113.549-.278.722l7.024 6.685zm2.95-7.404a10.747 10.747 0 0 0-2.946-7.406l-7.028 6.681c.165.174.277.431.277.723l9.697.003zm-2.946-7.407a10.459 10.459 0 0 0-7.31-3.262l-.25 9.694c.176.005.37.079.531.249l7.028-6.681zm2.598 4.793a9.158 9.158 0 0 0-6.557 2.775l6.943 6.769a.54.54 0 0 1-.386.153V8.347zm-6.557 2.774a9.38 9.38 0 0 0-2.655 6.549H25.6c0 .06-.022.141-.099.22l-6.943-6.769zm-2.655 6.55c0 1.484.574 2.932 1.633 4.018l6.943-6.769a3.938 3.938 0 0 1 1.121 2.752h-9.697zm1.633 4.018a5.711 5.711 0 0 0 4.089 1.726v-9.697c1.095 0 2.119.447 2.854 1.202l-6.943 6.769zm4.088 1.726a5.711 5.711 0 0 0 4.089-1.726L18.77 14.92a3.986 3.986 0 0 1 2.854-1.202v9.697zm4.089-1.726a5.755 5.755 0 0 0 1.633-4.018h-9.697c0-1.009.39-2.002 1.121-2.752l6.943 6.769zm1.633-4.018c0 .401-.115.802-.345 1.155l-8.125-5.293a7.58 7.58 0 0 0-1.227 4.138h9.697zm-.345 1.155c-.23.353-.57.648-.992.827l-3.792-8.925a7.48 7.48 0 0 0-3.342 2.805L27 18.826zm-.992.826c-.423.18-.895.229-1.352.135l1.938-9.501a7.411 7.411 0 0 0-4.378.441l3.792 8.925zm-1.352.136a2.256 2.256 0 0 1-1.162-.631l6.943-6.769a7.45 7.45 0 0 0-3.843-2.101l-1.938 9.501zm-1.162-.631a2.143 2.143 0 0 1-.572-1.087l9.52-1.846a7.559 7.559 0 0 0-2.005-3.837l-6.943 6.769zm-.572-1.087a2.1 2.1 0 0 1 .115-1.187l8.991 3.631a7.594 7.594 0 0 0 .413-4.29l-9.52 1.846zm.115-1.187c.154-.381.422-.727.791-.979l5.482 7.999a7.515 7.515 0 0 0 2.719-3.389l-8.991-3.631zm.791-.979c.37-.253.817-.396 1.286-.396v9.697a7.412 7.412 0 0 0 4.195-1.302l-5.482-7.999zm1.286-.396H2.424v9.697h22.691v-9.697zm-22.691 0a5.711 5.711 0 0 0-4.089 1.726l6.943 6.769a3.99 3.99 0 0 1-2.854 1.202v-9.697zm-4.088 1.726a5.755 5.755 0 0 0-1.633 4.018H6.4c0 1.009-.39 2.001-1.121 2.752l-6.943-6.769zm-1.633 4.017c0 1.484.574 2.932 1.633 4.018L5.279 18.5A3.938 3.938 0 0 1 6.4 21.252h-9.697zm1.633 4.018a5.711 5.711 0 0 0 4.089 1.726v-9.697c1.095 0 2.119.447 2.854 1.202l-6.943 6.769zm4.088 1.726h17.018v-9.697H2.424v9.697zm17.009 0a2.699 2.699 0 0 1-1.927-.812l6.956-6.756a7.002 7.002 0 0 0-5.01-2.129l-.02 9.697zm-1.927-.812a2.577 2.577 0 0 1-.734-1.804l9.697.019a7.117 7.117 0 0 0-2.006-4.971l-6.957 6.756zm-.735-1.804a2.578 2.578 0 0 1 .742-1.801l6.929 6.783a7.117 7.117 0 0 0 2.026-4.963l-9.697-.019zm.742-1.801a2.696 2.696 0 0 1 1.931-.805l-.02 9.697a7.004 7.004 0 0 0 5.019-2.109l-6.929-6.783zm1.917-.805c.659 0 1.279.239 1.752.649l-6.345 7.333a7.022 7.022 0 0 0 4.6 1.715l-.007-9.697zm1.752.649c.47.407.763.951.858 1.523l-9.566 1.587a7.126 7.126 0 0 0 2.363 4.223l6.345-7.333zm.861 1.539-.009-.054-9.572 1.555.009.054 9.572-1.555zm.012.089a5.776 5.776 0 0 0-.722-2.126l-8.396 4.851a3.929 3.929 0 0 1-.494-1.454l9.613-1.27zm-.722-2.127a5.742 5.742 0 0 0-1.505-1.705l-5.851 7.733a3.958 3.958 0 0 1-1.04-1.177l8.396-4.851zm-1.505-1.704a5.716 5.716 0 0 0-2.082-.992l-2.316 9.416a3.984 3.984 0 0 1-1.453-.692l5.851-7.733zm-2.083-.992a5.705 5.705 0 0 0-2.32-.084l1.631 9.559a4 4 0 0 1-1.627-.059l2.316-9.416zm-2.32-.084a5.718 5.718 0 0 0-2.152.842l5.286 8.129a4 4 0 0 1-1.504.588l-1.631-9.559zm-2.152.842a5.72 5.72 0 0 0-1.626 1.599l8.038 5.425a3.979 3.979 0 0 1-1.125 1.106l-5.286-8.129zm-1.626 1.598a5.758 5.758 0 0 0-.87 2.075l9.503 1.929a3.94 3.94 0 0 1-.596 1.421l-8.038-5.425zm-.869 2.075a5.748 5.748 0 0 0-.011 2.237l9.522-1.833a3.933 3.933 0 0 1-.008 1.525l-9.503-1.929zm-.036 2.098.009.054 9.572-1.555-.009-.054-9.572 1.555zm.01.062a8.928 8.928 0 0 0 2.953 5.299l6.353-7.326c.155.134.237.3.262.455l-9.569 1.571zm2.953 5.299a8.735 8.735 0 0 0 5.73 2.143l-.002-9.697c.247 0 .467.09.625.227l-6.353 7.326zm5.727 2.144a8.736 8.736 0 0 0 6.251-2.639l-6.935-6.777a.967.967 0 0 1 .689-.281l-.004 9.697zm6.25-2.639a8.934 8.934 0 0 0 2.536-6.229l-9.697-.017a.76.76 0 0 1 .225-.531l6.935 6.777zm2.536-6.238c0-1.793-.531-3.48-1.45-4.888l-8.12 5.3a.764.764 0 0 1-.127-.412h9.697zm-5.51 2.611h2.407v-9.697h-2.407v9.697zm2.407 0a9.158 9.158 0 0 0 6.557-2.775l-6.943-6.769a.54.54 0 0 1 .386-.153v9.697zm6.557-2.775a9.38 9.38 0 0 0 2.655-6.549H24.63c0-.06.022-.141.099-.22l6.943 6.769zm2.655-6.549a9.379 9.379 0 0 0-2.655-6.549l-6.943 6.769a.316.316 0 0 1-.099-.22h9.697zm-2.655-6.55a9.158 9.158 0 0 0-6.557-2.775v9.697a.54.54 0 0 1-.386-.153l6.943-6.769z"/>
    </symbol>

    <symbol id="icon-automatic" viewBox="0 0 32 32">
      <path stroke-linecap="round" stroke-linejoin="round" stroke-width="1.746" d="M22.465 14.707h1.939a1.937 1.937 0 0 0 1.939-1.939 1.937 1.937 0 0 0-1.939-1.939h-1.939v6.465m0 5.171v5.172h1.293a2.588 2.588 0 0 0 2.585-2.586 2.588 2.588 0 0 0-2.585-2.585h-1.293zM4.364 6.949a2.582 2.582 0 0 0 2.585 2.585 2.582 2.582 0 0 0 2.585-2.585 2.582 2.582 0 0 0-2.585-2.585 2.582 2.582 0 0 0-2.585 2.585zM6.95 9.535v3.879a1.295 1.295 0 0 0 1.293 1.293h3.879m-.001 0v9.05a1.295 1.295 0 0 0 1.293 1.293h3.879m-5.172-10.343h5.172"/>
    </symbol>

    <symbol id="icon-kitchen" viewBox="0 0 32 32">
      <path stroke-linecap="round" stroke-linejoin="round" stroke-width="1.746" d="M25.051 19.879V4.364c-6.227 5.94-6.494 10.756-6.465 15.515h6.465zm0 0v7.758h-1.293v-3.879M10.828 5.657v21.98M6.95 5.657v3.879a3.882 3.882 0 0 0 3.879 3.879 3.882 3.882 0 0 0 3.879-3.879V5.657"/>
    </symbol>

    <symbol id="icon-shower" viewBox="0 0 31 32">
      <path stroke-linecap="round" stroke-linejoin="round" stroke-width="1.939" d="m5.172 5.657 3.232 3.232m9.05 0a6.403 6.403 0 0 0-9.005.045 6.398 6.398 0 0 0-.045 9.005m10.99-10.99L6.465 19.878m11.636 2.587v.013m-5.172-1.306v.013m3.879-3.892v.013m3.879-3.892v.013m-6.465 12.916v.013m7.758-7.77v.013m3.879-3.892v.013"/>
    </symbol>
    
    <symbol id="icon-tv" viewBox="0 0 31 32">
      <path stroke-linecap="round" stroke-linejoin="round" stroke-width="1.746" d="M23.273 25.697H7.758a3.87 3.87 0 0 1-3.879-3.879v-9.697a3.87 3.87 0 0 1 3.879-3.879h15.515a3.87 3.87 0 0 1 3.879 3.879v9.697a3.87 3.87 0 0 1-3.879 3.879zM11.636 29.576h7.758M15.515 8.242l5.818-5.818M15.515 8.242 9.697 2.424"/>
    </symbol>
  </defs>
</svg>