<svg xmlns="http://www.w3.org/2000/svg" aria-hidden="true" style="position:absolute;width:0;height:0;overflow:hidden">
  <defs>
    <symbol id="icon-alcove" viewBox="0 0 44 32">
      <path d="M2.518 2.289h11.981a.382.382 0 0 0 .268-.109l1.151-1.123A1.784 1.784 0 0 1 17.17.551h18.168c.846 0 1.631.41 2.101 1.097l2.177 3.186c.309.452.337 1.031.074 1.51s-.773.777-1.33.777h-9.364v.923h4.796c1.271 0 2.415.737 2.914 1.878l2.808 6.42 2.46.96c1.314.513 2.162 1.735 2.162 3.116v5.946c0 .887-.74 1.608-1.649 1.608h-2.862c-.333 1.968-2.089 3.475-4.2 3.475s-3.867-1.507-4.2-3.475H15.58c-.333 1.968-2.09 3.475-4.2 3.475s-3.867-1.507-4.2-3.475H1.463c-.808 0-1.466-.641-1.466-1.43V4.745c0-1.355 1.129-2.457 2.518-2.457zm32.909 27.802c1.581 0 2.867-1.254 2.867-2.796s-1.286-2.796-2.867-2.796-2.866 1.254-2.866 2.796 1.286 2.796 2.866 2.796zm-6.429-3.475h2.228l.02-.101.013-.068c.011-.053.024-.106.037-.159l.008-.033c.017-.063.035-.126.055-.188l.018-.054c.014-.043.029-.087.045-.13l.027-.068a2.18 2.18 0 0 1 .045-.112l.032-.072c.016-.035.031-.07.048-.104l.037-.073c.017-.033.034-.067.052-.099l.04-.072c.018-.033.038-.065.057-.097a4.052 4.052 0 0 1 .106-.165l.043-.063.075-.102.039-.053c.035-.045.07-.087.105-.13l.016-.02c.041-.049.084-.097.127-.143.013-.015.027-.028.041-.042l.093-.096.054-.051.087-.081.06-.052.087-.074.064-.05.09-.069.066-.048.093-.065.067-.044c.033-.022.067-.042.1-.063l.066-.04c.037-.022.075-.042.112-.063l.057-.032.163-.082.013-.006c.059-.028.119-.054.179-.079l.059-.023c.041-.016.083-.033.125-.048l.072-.025.116-.038.079-.023.114-.032.082-.021.114-.026.084-.017a4.141 4.141 0 0 1 .325-.049l.08-.009c.046-.004.092-.008.138-.01.023-.002.045-.004.068-.004a3.644 3.644 0 0 1 .418 0l.068.004.138.01c.027.002.053.006.08.009l.124.016.084.013.117.02a2.498 2.498 0 0 1 .198.043l.082.021.114.032.079.023.116.038.072.025.125.048.059.023c.06.025.12.052.179.079l.013.006c.055.026.109.053.163.082l.057.032c.038.021.076.041.112.063l.066.04c.033.021.067.041.1.063l.067.044.094.065.066.048.09.069.063.05.087.074.06.052.087.081.054.051c.032.031.062.064.093.096l.041.042c.043.047.086.094.127.143l.016.02c.036.043.071.086.105.13l.039.053a2.425 2.425 0 0 1 .118.165l.064.097.042.068c.02.032.039.065.057.097l.039.072a2.354 2.354 0 0 1 .089.172l.048.104.032.072c.016.037.031.074.045.112l.027.068c.016.043.031.086.045.13l.018.054c.019.062.038.124.054.188l.008.033c.013.053.026.105.037.159l.013.068c.007.034.014.067.019.101h2.861a.254.254 0 0 0 .257-.251v-2.844H41.66v-1.358h1.085v-1.744c0-.822-.505-1.55-1.287-1.855l-2.604-1.016h-9.857v9.068zm0-10.426h8.938l-2.508-5.735a1.775 1.775 0 0 0-1.634-1.053h-4.796v6.787zM11.382 30.091c1.581 0 2.866-1.254 2.866-2.796s-1.286-2.796-2.866-2.796c-.05 0-.099.001-.148.004-1.317.065-2.402 1.002-2.661 2.23l-.026.138a2.874 2.874 0 0 0-.033.425c0 1.542 1.286 2.796 2.867 2.796zm-9.991-7.928h1.085v1.358H1.391v3.023c0 .04.033.072.074.072h5.716l.019-.1.013-.07c.011-.052.023-.104.037-.155l.009-.036c.017-.063.035-.125.055-.187l.019-.056c.014-.043.029-.086.045-.128l.027-.07c.014-.037.029-.074.045-.11l.033-.074c.016-.034.031-.069.048-.103l.037-.074.052-.099.04-.072.057-.097.042-.069a4.005 4.005 0 0 1 .106-.16l.073-.1.041-.055c.033-.043.067-.085.102-.127l.018-.022a4.45 4.45 0 0 1 .169-.186c.031-.032.061-.064.092-.094l.055-.052.086-.08.06-.053.087-.073.064-.052.089-.068.066-.048.093-.065.067-.045c.033-.022.066-.042.1-.062l.066-.04c.037-.022.074-.042.112-.063l.058-.032c.053-.028.106-.055.161-.08l.014-.007c.059-.028.119-.054.179-.079l.059-.023c.042-.016.083-.033.125-.048l.073-.025.115-.038a2.35 2.35 0 0 1 .079-.023l.114-.032.082-.021.114-.026.084-.017.117-.02a4.654 4.654 0 0 1 .288-.038c.046-.004.092-.008.138-.01.023-.002.045-.004.068-.004a3.644 3.644 0 0 1 .418 0l.068.004.138.01c.027.002.054.006.08.009a4.654 4.654 0 0 1 .207.029l.118.02a2.498 2.498 0 0 1 .198.043l.082.021.114.032.079.023.115.038.073.025.125.048.059.023a5.714 5.714 0 0 1 .354.166l.058.032c.037.021.075.041.112.063l.066.04.1.062.067.045c.031.021.062.042.093.065l.066.048.089.068.064.052a3.052 3.052 0 0 1 .147.125l.087.081.054.051.093.095.041.043c.043.047.086.094.127.143l.017.021a4.5 4.5 0 0 1 .104.129l.04.053c.025.034.05.067.074.102l.043.064a2.007 2.007 0 0 1 .105.165c.02.032.039.065.057.097l.04.072.053.099.036.073.048.104.032.072a3.745 3.745 0 0 1 .118.311c.006.018.013.035.018.053a4.048 4.048 0 0 1 .133.549h12.024V6.444c0-.375.312-.679.696-.679h10.059c.017 0 .07 0 .103-.06s.004-.103-.006-.116l-2.177-3.186a1.14 1.14 0 0 0-.943-.492H17.171a.38.38 0 0 0-.268.109l-1.151 1.123a1.782 1.782 0 0 1-1.252.506H2.519c-.621 0-1.127.493-1.127 1.099v17.417z"/>
      <path d="M19.422 7.501h4.401c.889 0 1.612.705 1.612 1.573v14.527a.688.688 0 0 1-.696.679h-6.234a.688.688 0 0 1-.696-.679V9.074c-.001-.868.722-1.573 1.612-1.573zm-.221 15.421h4.842V14.94h-4.842v7.982zm0-9.339h4.842V9.075a.219.219 0 0 0-.221-.216h-4.401a.219.219 0 0 0-.221.216v4.508h.001zM5.345 7.501h8.51c.983 0 1.784.781 1.784 1.74V13.2c0 .959-.8 1.74-1.784 1.74H5.344c-.984 0-1.784-.781-1.784-1.74V9.241c.001-.959.801-1.74 1.784-1.74zM4.952 13.2c0 .211.176.383.392.383h8.51a.388.388 0 0 0 .392-.383V9.241a.388.388 0 0 0-.392-.383H5.343a.388.388 0 0 0-.392.383V13.2h.001z"/>
    </symbol>
    
    <symbol id="icon-fully-integrated" viewBox="0 0 44 32">
      <path d="M2.518 2.289h11.981a.382.382 0 0 0 .268-.109l1.151-1.123A1.784 1.784 0 0 1 17.17.551h18.168c.846 0 1.631.41 2.101 1.097l2.177 3.186c.309.452.337 1.031.074 1.51s-.773.777-1.33.777h-9.364v.923h4.796c1.271 0 2.415.737 2.914 1.878l2.808 6.42 2.46.96c1.314.513 2.162 1.735 2.162 3.116v5.946c0 .887-.74 1.608-1.649 1.608h-2.862c-.333 1.968-2.089 3.475-4.2 3.475s-3.867-1.507-4.2-3.475H15.58c-.333 1.968-2.09 3.475-4.2 3.475s-3.867-1.507-4.2-3.475H1.463c-.808 0-1.466-.641-1.466-1.43V4.745c0-1.355 1.129-2.457 2.518-2.457zm32.909 27.802c1.581 0 2.867-1.254 2.867-2.796s-1.286-2.796-2.867-2.796-2.866 1.254-2.866 2.796 1.286 2.796 2.866 2.796zm-6.429-3.475h2.228l.02-.101.013-.068c.011-.053.024-.106.037-.159l.008-.033c.017-.063.035-.126.055-.188l.018-.054c.014-.043.029-.087.045-.13l.027-.068a2.18 2.18 0 0 1 .045-.112l.032-.072c.016-.035.031-.07.048-.104l.037-.073c.017-.033.034-.067.052-.099l.04-.072c.018-.033.038-.065.057-.097a4.052 4.052 0 0 1 .106-.165l.043-.063.075-.102.039-.053c.035-.045.07-.087.105-.13l.016-.02c.041-.049.084-.097.127-.143.013-.015.027-.028.041-.042l.093-.096.054-.051.087-.081.06-.052.087-.074.064-.05.09-.069.066-.048.093-.065.067-.044c.033-.022.067-.042.1-.063l.066-.04c.037-.022.075-.042.112-.063l.057-.032.163-.082.013-.006c.059-.028.119-.054.179-.079l.059-.023c.041-.016.083-.033.125-.048l.072-.025.116-.038.079-.023.114-.032.082-.021.114-.026.084-.017a4.141 4.141 0 0 1 .325-.049l.08-.009c.046-.004.092-.008.138-.01.023-.002.045-.004.068-.004a3.644 3.644 0 0 1 .418 0l.068.004.138.01c.027.002.053.006.08.009l.124.016.084.013.117.02a2.498 2.498 0 0 1 .198.043l.082.021.114.032.079.023.116.038.072.025.125.048.059.023c.06.025.12.052.179.079l.013.006c.055.026.109.053.163.082l.057.032c.038.021.076.041.112.063l.066.04c.033.021.067.041.1.063l.067.044.094.065.066.048.09.069.063.05.087.074.06.052.087.081.054.051c.032.031.062.064.093.096l.041.042c.043.047.086.094.127.143l.016.02c.036.043.071.086.105.13l.039.053a2.425 2.425 0 0 1 .118.165l.064.097.042.068c.02.032.039.065.057.097l.039.072a2.354 2.354 0 0 1 .089.172l.048.104.032.072c.016.037.031.074.045.112l.027.068c.016.043.031.086.045.13l.018.054c.019.062.038.124.054.188l.008.033c.013.053.026.105.037.159l.013.068c.007.034.014.067.019.101h2.861a.254.254 0 0 0 .257-.251v-2.844H41.66v-1.358h1.085v-1.744c0-.822-.505-1.55-1.287-1.855l-2.604-1.016h-9.857v9.068zm0-10.426h8.938l-2.508-5.735a1.775 1.775 0 0 0-1.634-1.053h-4.796v6.787zM11.382 30.091c1.581 0 2.866-1.254 2.866-2.796s-1.286-2.796-2.866-2.796c-.05 0-.099.001-.148.004-1.317.065-2.402 1.002-2.661 2.23l-.026.138a2.874 2.874 0 0 0-.033.425c0 1.542 1.286 2.796 2.867 2.796zm-9.991-7.928h1.085v1.358H1.391v3.023c0 .04.033.072.074.072h5.716l.019-.1.013-.07c.011-.052.023-.104.037-.155l.009-.036c.017-.063.035-.125.055-.187l.019-.056c.014-.043.029-.086.045-.128l.027-.07c.014-.037.029-.074.045-.11l.033-.074c.016-.034.031-.069.048-.103l.037-.074.052-.099.04-.072.057-.097.042-.069a4.005 4.005 0 0 1 .106-.16l.073-.1.041-.055c.033-.043.067-.085.102-.127l.018-.022a4.45 4.45 0 0 1 .169-.186c.031-.032.061-.064.092-.094l.055-.052.086-.08.06-.053.087-.073.064-.052.089-.068.066-.048.093-.065.067-.045c.033-.022.066-.042.1-.062l.066-.04c.037-.022.074-.042.112-.063l.058-.032c.053-.028.106-.055.161-.08l.014-.007c.059-.028.119-.054.179-.079l.059-.023c.042-.016.083-.033.125-.048l.073-.025.115-.038a2.35 2.35 0 0 1 .079-.023l.114-.032.082-.021.114-.026.084-.017.117-.02a4.654 4.654 0 0 1 .288-.038c.046-.004.092-.008.138-.01.023-.002.045-.004.068-.004a3.644 3.644 0 0 1 .418 0l.068.004.138.01c.027.002.054.006.08.009a4.654 4.654 0 0 1 .207.029l.118.02a2.498 2.498 0 0 1 .198.043l.082.021.114.032.079.023.115.038.073.025.125.048.059.023a5.714 5.714 0 0 1 .354.166l.058.032c.037.021.075.041.112.063l.066.04.1.062.067.045c.031.021.062.042.093.065l.066.048.089.068.064.052a3.052 3.052 0 0 1 .147.125l.087.081.054.051.093.095.041.043c.043.047.086.094.127.143l.017.021a4.5 4.5 0 0 1 .104.129l.04.053c.025.034.05.067.074.102l.043.064a2.007 2.007 0 0 1 .105.165c.02.032.039.065.057.097l.04.072.053.099.036.073.048.104.032.072a3.745 3.745 0 0 1 .118.311c.006.018.013.035.018.053a4.048 4.048 0 0 1 .133.549h12.024V6.444c0-.375.312-.679.696-.679h10.059c.017 0 .07 0 .103-.06s.004-.103-.006-.116l-2.177-3.186a1.14 1.14 0 0 0-.943-.492H17.171a.38.38 0 0 0-.268.109l-1.151 1.123a1.782 1.782 0 0 1-1.252.506H2.519c-.621 0-1.127.493-1.127 1.099v17.417z"/>
      <path d="M19.422 7.501h4.401c.889 0 1.612.705 1.612 1.573v14.527a.688.688 0 0 1-.696.679h-6.234a.688.688 0 0 1-.696-.679V9.074c-.001-.868.722-1.573 1.612-1.573zm-.221 15.421h4.842V14.94h-4.842v7.982zm0-9.339h4.842V9.075a.219.219 0 0 0-.221-.216h-4.401a.219.219 0 0 0-.221.216l.001 4.508z"/>
    </symbol>
    
    <symbol id="icon-van" viewBox="0 0 46 32">
      <path d="M2.608 1.8h12.409c.105 0 .203-.04.278-.112L16.487.525a1.845 1.845 0 0 1 1.297-.524h18.817c.876 0 1.69.425 2.176 1.136l2.255 3.3c.32.468.349 1.067.077 1.564s-.8.805-1.377.805h-9.698v.956h4.967c1.317 0 2.501.763 3.018 1.945l2.908 6.65 2.548.994c1.36.531 2.24 1.797 2.24 3.227v6.158c0 .918-.766 1.666-1.708 1.666h-2.964c-.345 2.039-2.164 3.599-4.35 3.599s-4.005-1.561-4.35-3.599H16.14c-.345 2.039-2.164 3.599-4.35 3.599s-4.005-1.561-4.35-3.599H1.519c-.837 0-1.518-.664-1.518-1.481V4.345c0-1.403 1.17-2.544 2.608-2.544zm34.084 28.794c1.637 0 2.969-1.299 2.969-2.896s-1.332-2.896-2.969-2.896c-1.637 0-2.969 1.299-2.969 2.896s1.332 2.896 2.969 2.896zm-6.658-3.599h2.307l.02-.105.014-.071c.012-.055.025-.11.039-.164.003-.011.005-.023.009-.034a3.34 3.34 0 0 1 .057-.195l.019-.056a5.274 5.274 0 0 1 .122-.321l.033-.075c.016-.037.032-.072.05-.108l.038-.075.054-.103.041-.074.059-.101.043-.071.066-.101.044-.065.077-.105.04-.055.109-.135.016-.02c.043-.051.087-.1.132-.148l.043-.044.096-.099.056-.053.09-.084.062-.054.09-.077.066-.052.093-.071a1.22 1.22 0 0 1 .069-.05l.097-.068.069-.046c.034-.023.069-.044.104-.065l.068-.041c.038-.023.077-.044.116-.065l.059-.033.168-.084.013-.006c.061-.029.123-.056.186-.082l.061-.024.13-.05.075-.026.12-.039.082-.024c.039-.011.078-.023.118-.033.028-.007.056-.015.085-.021l.118-.026.087-.018c.04-.007.081-.015.122-.021l.086-.014.128-.016.082-.009.143-.011.07-.005a3.893 3.893 0 0 1 .502.005c.048.003.096.006.143.011.028.002.055.006.082.009l.128.016c.029.004.058.008.087.014.041.006.081.014.122.021l.087.018a4.084 4.084 0 0 1 .321.08l.082.024.12.039.075.026.13.05.061.024c.062.026.125.053.186.082l.013.006c.057.027.112.055.168.084l.059.033.116.065.068.041.104.065.069.046c.033.023.065.044.097.068l.069.05.093.071.066.052c.031.025.061.051.09.077l.062.054.09.084.056.053.096.099.043.044c.045.048.089.098.132.148l.016.02c.037.044.073.089.109.135l.04.055.077.105.044.065.066.101.043.071.059.101.041.074.054.103.038.075.05.108c.011.025.023.049.033.075.017.038.032.077.047.116a2.087 2.087 0 0 1 .075.205l.019.056c.02.064.039.129.056.195l.009.034c.014.055.027.109.039.164l.014.071.02.105h2.963a.263.263 0 0 0 .266-.26v-2.946h-1.124v-1.406h1.124v-1.806c0-.851-.523-1.606-1.333-1.922l-2.697-1.052H30.031v9.392zm0-10.798h9.257l-2.598-5.939a1.84 1.84 0 0 0-1.692-1.09h-4.967v7.03zM11.789 30.594c1.637 0 2.969-1.299 2.969-2.896s-1.332-2.896-2.969-2.896c-.051 0-.102.001-.153.004-1.364.067-2.488 1.038-2.756 2.309a2.812 2.812 0 0 0-.061.583c0 1.597 1.332 2.896 2.969 2.896zM1.441 22.383h1.124v1.406H1.441v3.131c0 .041.035.075.077.075h5.92l.02-.104.014-.072c.012-.054.024-.107.038-.16l.009-.038a4.26 4.26 0 0 1 .056-.193l.02-.058.046-.132.028-.072.046-.114a2.049 2.049 0 0 1 .084-.182l.038-.076.054-.102.042-.074.059-.1a2.156 2.156 0 0 1 .11-.171 1.08 1.08 0 0 1 .044-.066l.076-.104.042-.057.106-.132a3.757 3.757 0 0 1 .15-.171l.043-.045c.032-.033.063-.066.096-.098l.056-.053.089-.083.062-.055c.029-.025.059-.051.09-.075l.066-.053.092-.071.069-.05.096-.067.07-.047c.034-.023.069-.044.103-.065l.069-.042c.038-.023.077-.044.116-.065.02-.011.04-.023.061-.033.055-.029.11-.057.167-.083l.014-.007c.061-.029.123-.056.186-.082l.061-.024.13-.05.076-.026c.039-.014.079-.027.119-.039l.082-.024c.039-.011.078-.023.118-.033.028-.007.056-.015.085-.021l.118-.026.087-.018c.04-.007.081-.015.122-.021l.086-.014.128-.016.082-.009.143-.011.07-.005a3.893 3.893 0 0 1 .502.005c.048.003.096.006.143.011.028.002.055.006.082.009l.128.016c.029.004.058.008.086.014.041.006.081.014.122.021l.087.018a4.084 4.084 0 0 1 .321.08l.082.024c.04.012.08.026.119.039l.076.026.13.05.061.024c.062.026.124.053.186.082l.014.007c.056.026.112.054.167.083l.06.033.116.065.069.042c.035.021.069.042.103.065l.07.047c.032.022.065.044.096.067l.069.05.092.071c.023.017.044.035.066.053.031.025.061.05.09.076l.062.054.09.084.056.053.096.098.043.044c.045.048.089.098.132.148l.017.021c.036.044.073.088.107.134l.042.055.077.105.044.066c.023.033.044.066.066.1l.044.071.059.101.041.074.055.103a2.6 2.6 0 0 1 .087.183 2.343 2.343 0 0 1 .08.191l.028.071c.017.045.032.09.047.135l.019.055c.02.064.039.129.057.195l.007.031c.014.056.028.111.04.168l.013.069.021.106h12.453V6.106c0-.388.323-.703.721-.703h10.419c.018 0 .073 0 .107-.062s.004-.106-.006-.12l-2.255-3.3a1.18 1.18 0 0 0-.977-.51H17.784a.397.397 0 0 0-.278.112l-1.192 1.163a1.845 1.845 0 0 1-1.297.524H2.608c-.643 0-1.167.511-1.167 1.138v18.039z"/>
      <path d="M5.536 7.198h8.814c1.019 0 1.848.809 1.848 1.802v4.1c0 .994-.829 1.802-1.848 1.802H5.535c-1.019 0-1.848-.809-1.848-1.802V9c.001-.994.83-1.802 1.848-1.802zM5.129 13.1c0 .218.182.396.406.396h8.814a.402.402 0 0 0 .406-.396V9a.402.402 0 0 0-.406-.396H5.534A.402.402 0 0 0 5.128 9l.001 4.1z"/>
    </symbol>
  </defs>
</svg>